<?xml version="1.0" encoding="utf-8"?>
<!-- Generator: Adobe Illustrator 25.4.1, SVG Export Plug-In . SVG Version: 6.00 Build 0)  -->
<svg version="1.1" id="Device" xmlns="http://www.w3.org/2000/svg" xmlns:xlink="http://www.w3.org/1999/xlink" x="0px" y="0px"
	 viewBox="0 0 1326 388.1" style="enable-background:new 0 0 1326 388.1;" xml:space="preserve">
<style type="text/css">
	.st0{fill:#00A3AD;}
</style>
<path class="st0" d="M728.2,154.5c-0.4,0-0.8,0-1.2,0c-10.2,0-18.9,6.6-22.2,15.9c-10.7-9.1-24.2-14.6-39.6-14.6
	c-34.4,0-62.5,28.9-62.5,64.4c0,36.2,28.1,64.9,62.5,64.9c15.4,0,28.9-5.5,39.6-14.6V285h23.4L728.2,154.5L728.2,154.5z
	 M704.8,225.9c-2.9,20.1-19.5,35.4-39.6,35.4c-21.9,0-39.9-18.5-39.9-41.2c0-22.1,18-40.6,39.9-40.6c20.1,0,36.7,15.4,39.6,35.4
	V225.9z"/>
<g>
	<path class="st0" d="M806.3,154c-15.6,0-28.9,5.7-40.1,14.9v-54.9c0-13.2-10.5-24-23.4-24c0,0,0,0-0.1,0V285h23.4v-14.9
		c11.2,9.1,24.5,14.9,40.1,14.9c35.4,0,63.8-29.2,63.8-65.7C870.2,182.9,841.8,154,806.3,154z M806.3,261.1
		c-20.6,0-37.3-15.9-40.1-36.5v-10.2c2.9-20.6,19.5-36.5,40.1-36.5c22.1,0,40.6,18.5,40.6,41.4C847,242.6,828.5,261.1,806.3,261.1z"
		/>
	<polygon class="st0" points="742.8,89.9 742.8,89.9 742.8,89.9 	"/>
</g>
<path class="st0" d="M1004.3,220.1c0,36.2-28.4,64.9-63.1,64.9c-34.9,0-63.3-28.7-63.3-64.9c0-36,28.4-64.9,63.3-64.9
	C975.9,155.3,1004.3,184.2,1004.3,220.1z M981.4,220.1c0-22.7-18-41.2-40.1-41.2c-22.4,0-40.4,18.5-40.4,41.2
	c0,22.7,18,41.2,40.4,41.2C963.4,261.3,981.4,242.8,981.4,220.1z"/>
<path class="st0" d="M1116,113.9l0,54.9c-10.7-9.1-24.5-14.3-39.9-14.3c-34.9,0-63.3,28.9-63.3,64.9s28.4,65.7,63.3,65.7
	c15.4,0,29.2-6,39.9-15.1V285h23.5V89.9C1126.5,89.9,1116,100.7,1116,113.9z M1116,224.8c-2.1,20.3-19,36-39.9,36
	c-22.1,0-40.1-18.5-40.1-41.4s18-41.4,40.1-41.4c20.8,0,37.8,15.6,39.9,36V224.8z"/>
<path class="st0" d="M1180.8,175.1l23.8,53.8l23.8-53.8c5.5-12.4,16.1-18.1,32.7-18.1L1178,351.1H1152l39.6-92.5L1148,157
	C1164.7,157,1175.3,162.7,1180.8,175.1L1180.8,175.1z"/>
<path class="st0" d="M593,220.1c0,4.4-0.3,8.1-1,11.5H490.6c4.7,17.7,20.3,30.2,38.4,30.2c8.6,0,15.8-2.3,21.8-6.8h32.2
	c-11.2,18.8-31.2,30.5-54,30.5c-34.5,0-63.4-28.9-63.4-65.4c0-36.5,28.8-65.7,63.4-65.7C564.4,154.5,593,183.7,593,220.1z
	 M490.6,208.4H568c-4.7-17.2-20.5-30.2-39-30.2C510.6,178.2,495.6,191,490.6,208.4z"/>
<path class="st0" d="M404,102.9h-54.5V285c13.8,0,25-11.5,25-25.7c0,0,0-26.7,0-26.7H404c9.1,0,22.9-4.4,34.1-11.5
	c18-11.2,29.7-31.5,29.7-54.5C467.8,132.6,440.5,102.9,404,102.9z M404,207.6h-29.4v-79.5H404c20.6,0,38.6,18,38.6,38.8
	C442.6,189.9,424.6,207.6,404,207.6z"/>
<g>
	<g>
		<path class="st0" d="M114.1,274c47.5,0,75.5-27.8,75.5-75.5C141.9,198.6,114.1,226.6,114.1,274z"/>
	</g>
	<g>
		<path class="st0" d="M114.1,114.1c0,47.5,27.8,75.5,75.5,75.5C189.5,141.9,161.5,114.1,114.1,114.1z"/>
	</g>
	<g>
		<path class="st0" d="M274,114.1c0,47.5-27.8,75.5-75.5,75.5C198.6,141.9,226.6,114.1,274,114.1z"/>
		<g>
			<path class="st0" d="M212.9,128.3c1.7-1.7,3.5-3.3,5.4-4.8c-2.7-14.6-10.7-29-24.2-42.5c-13.5,13.5-21.5,27.9-24.2,42.5
				c1.9,1.5,3.7,3.1,5.4,4.8c8.9,8.9,15.2,20.3,18.8,33.6C197.6,148.6,204,137.2,212.9,128.3z"/>
		</g>
	</g>
	<g>
		<path class="st0" d="M274,274c-47.5,0-75.5-27.8-75.5-75.5C246.2,198.6,274,226.6,274,274z"/>
		<g>
			<path class="st0" d="M259.8,212.9c1.7,1.7,3.3,3.5,4.8,5.4c14.6-2.7,29-10.7,42.5-24.2c-13.5-13.5-27.9-21.5-42.5-24.2
				c-1.5,1.9-3.1,3.7-4.8,5.4c-8.9,8.9-20.3,15.2-33.6,18.8C239.5,197.6,250.9,204,259.8,212.9z"/>
		</g>
	</g>
	<g>
		<path class="st0" d="M212.9,259.8c-8.9-8.9-15.2-20.3-18.8-33.6c-3.6,13.3-9.9,24.7-18.8,33.6c-1.7,1.7-3.5,3.3-5.4,4.8
			c2.7,14.6,10.7,29,24.2,42.5c13.5-13.5,21.5-27.9,24.2-42.5C216.4,263.1,214.6,261.5,212.9,259.8z"/>
	</g>
	<g>
		<path class="st0" d="M128.3,212.9c8.9-8.9,20.3-15.2,33.6-18.8c-13.3-3.6-24.7-9.9-33.6-18.8c-1.7-1.7-3.3-3.5-4.8-5.4
			c-14.6,2.7-29,10.7-42.5,24.2c13.5,13.5,27.9,21.5,42.5,24.2C125,216.4,126.6,214.6,128.3,212.9z"/>
	</g>
</g>
</svg>
